<svg version="1.1"
	 xmlns="http://www.w3.org/2000/svg" xmlns:xlink="http://www.w3.org/1999/xlink" xmlns:a="http://ns.adobe.com/AdobeSVGViewerExtensions/3.0/"
	 x="0px" y="0px" width="103.4px" height="116.1px" viewBox="0 0 103.4 116.1" style="enable-background:new 0 0 103.4 116.1;"
	 xml:space="preserve">
<style type="text/css">
	.st0{fill:#0000BF;stroke:#000000;stroke-width:2;stroke-miterlimit:10;}
	.st1{fill:#FFFFFF;stroke:#000000;stroke-width:2;stroke-miterlimit:10;}
	.st2{fill:#4040FF;stroke:#000000;stroke-width:2;stroke-miterlimit:10;}
</style>
<defs>
</defs>
<g>
	<path class="st0" d="M52,1L1.2,18l4,19l14-5l8,54l-12-5l3,17l31,17l31-15l4-19l-34,16l-9-4l-7-65l17-6l1-20.8C52.2,1.1,52.1,1,52,1
		z"/>
	<path class="st1" d="M52.2,1"/>
	<path class="st2" d="M52.3,1L102.2,19l-6,18l-13-5l-9,47l-14,6l6-58l-15-5l1-20.8C52.2,1,52.2,1,52.3,1z"/>
</g>
</svg>
