<svg version="1.1"
	 xmlns="http://www.w3.org/2000/svg" xmlns:xlink="http://www.w3.org/1999/xlink" xmlns:a="http://ns.adobe.com/AdobeSVGViewerExtensions/3.0/"
	 x="0px" y="0px" width="342.1px" height="349.3px" viewBox="0 0 342.1 349.3" style="enable-background:new 0 0 342.1 349.3;"
	 xml:space="preserve">
<style type="text/css">
	.st0{fill:#FDB524;}
	.st1{fill:#FDB524;stroke:#000000;stroke-width:5;stroke-miterlimit:10;}
	.st2{stroke:#000000;stroke-miterlimit:10;}
	.st3{fill:#BBB6B2;stroke:#000000;stroke-width:2;stroke-miterlimit:10;}
	.st4{fill:#F397A3;stroke:#000000;stroke-width:2;stroke-miterlimit:10;}
	.st5{fill:#FFFFFF;stroke:#000000;stroke-width:2;stroke-miterlimit:10;}
	.st6{fill:#D3CECB;stroke:#000000;stroke-width:2;stroke-miterlimit:10;}
	.st7{fill:url(#SVGID_1_);stroke:#000000;stroke-miterlimit:10;}
	.st8{fill:#000600;stroke:#000000;stroke-miterlimit:10;}
	.st9{fill:#FFFFFF;}
	.st10{fill:url(#SVGID_2_);stroke:#000000;stroke-miterlimit:10;}
	.st11{stroke:#000000;stroke-width:2;stroke-miterlimit:10;}
	.st12{fill:#F397A3;stroke:#000000;stroke-miterlimit:10;}
	.st13{fill:url(#SVGID_3_);stroke:#000000;stroke-miterlimit:10;}
	.st14{fill:url(#SVGID_4_);stroke:#000000;stroke-miterlimit:10;}
</style>
<defs>
</defs>
<g>
	<g>
		<path class="st0" d="M324.9,84.3"/>
		<g>
			<path class="st1" d="M171.4,37.8c0,0,24-24,70-4c0,0,14,0,46-31c0,0,49-9,7,77c0,0,12,11,29,56h-10c0,0,4,33,20,52l-14-6l10,32
				h-5l4,6l-18,4c0,0,5,6,13,10c0,0-43-2-36,8l16,14c0,0-53-6-71,34c0,0,8,24-16,41l-3-3c0,0-5.8,8.8-14.7,12.8
				c-0.1,0.1-0.2,0.1-0.3,0.2l-3-2c0,0-12,9-24,8s-22-8-22-8v5c0,0-16-12-18-14s0,3,0,3s-23-12-20-44c0,0-16-38-69-29l14-16
				c0,0,7-7-43-6l22-9c0,0,8-5-22-6l9-38l-12,6c0,0,34-66,10-51c0,0,7-34,24-57c0,0-43-74,9-77c0,0,28,26,41,26
				C94.4,31.8,146.4,17.8,171.4,37.8z"/>
			<path class="st2" d="M245.1,137.5c0,0,20.6,13.6,9.3,46.3c0,0,4-38.8-12-37c0,0,7.9,33.8,1,41c0,0,7-32-13.2-39.7l3,9.1
				c0,0-6.6-12.6-17.6-14.8C215.5,142.4,239.6,128.8,245.1,137.5z"/>
			<path class="st2" d="M105.2,133.5c0,0-20.6,13.6-9.3,46.3c0,0-4-38.8,12-37c0,0-7.9,33.8-1,41c0,0-7-32,13.2-39.7l-3,9.1
				c0,0,6.6-12.6,17.6-14.8C134.7,138.4,110.7,124.8,105.2,133.5z"/>
			<rect x="141.9" y="209.3" width="63" height="76"/>
			<rect x="133" y="205.3" transform="matrix(0.9945 -0.1051 0.1051 0.9945 -24.6265 16.0421)" width="14" height="73"/>
			<rect x="198" y="205.3" transform="matrix(-0.9945 -0.1051 0.1051 -0.9945 383.3688 503.7283)" width="14" height="73"/>
			<path class="st3" d="M173.4,299.8c0,0,1-9,24-7c0,0,13,2,18-11c0,0,17,10,6,21c0,0-2,1,1,7c0,0-4,1-7-8c0,0-4,18-10,16l-3-5
				c0,0-6,7-5,9c0,0-2-2-4,0c0,0-3,3-1,3c0,0-5,0-2-8c0,0-9,14-15,15c0,0-14-1-22-14c0,0,2,6,0,6c0,0-2,3-13-12c0,0,2,7-2,6
				c0,0-4-1-9-16c0,0-5,14-6,8c0,0-11-21,4-27c0,0,13,14,17,11C144.4,293.8,166.4,290.8,173.4,299.8z"/>
			<path class="st4" d="M172.3,209.1c0,0-19.3-5.4-10.7-18.3c0,0-6.4-10.7-12.9-3.2c0,0-4.3-29,23.6-9.7c0,0,24.7-17.2,24.7,8.6
				c0,0-12.9-5.4-16.1,6.4C180.9,193,187.4,205.9,172.3,209.1z"/>
			<path class="st5" d="M163.4,216.7c0,1.2,0.1,2.3-1.1,2.3c-1.2,0-3.4-1-3.4-2.3c0-1.2,1-2.3,2.3-2.3
				C162.4,214.5,163.4,215.5,163.4,216.7z"/>
			<circle class="st5" cx="169" cy="217.8" r="2.3"/>
			<circle class="st5" cx="176.9" cy="217.8" r="2.3"/>
			<circle class="st5" cx="183.6" cy="216.7" r="2.3"/>
			<path class="st5" d="M187.4,213.8c0,0,0,4,2,6c0,0,4-3,4-10L187.4,213.8z"/>
			<path class="st5" d="M157.4,212.8c0,0,0,4-2,6c0,0-4-3-4-10L157.4,212.8z"/>
			<path class="st4" d="M149.4,209.3c0,0,21,18.4,46,0H149.4z"/>
			<path class="st3" d="M194.4,173.8c0,0,12-8,19-19c0,0,1,9-4,16s12-5,16-13c0,0,4,15-22,28c0,0,7,3,30-16c0,0-4,19-22,25
				c0,0,12,1,22-8c0,0-2,16-20,15c0,0,1,5,10,0c0,0-1,9-43,9c0,0-18-7,0-13c0,0,3-13,10-15C190.4,182.8,198.4,181.8,194.4,173.8z"/>
			<path class="st4" d="M125.4,206.8c0,0,11,40,8,70c0,0,11,14,21,11c0,0,7,0,19,2c0,0,8-3,18-2c0,0,16,2,22-14c0,0-5-38,6-67
				c0,0-5-2-6,5c0,0-8,30-6,63c0,0-36,24-70-1c0,0,5-26-7-62C130.4,211.8,126.4,202.8,125.4,206.8z"/>
			<path class="st5" d="M211.4,209.8c0,0-1,34-6,32c0,0-6-32-5-32S211.4,209.8,211.4,209.8z"/>
			<path class="st5" d="M144.4,209.8c0,0-1,34-6,32c0,0-6-32-5-32S144.4,209.8,144.4,209.8z"/>
			<ellipse class="st4" cx="173.9" cy="271.8" rx="21.5" ry="8.8"/>
			<path class="st5" d="M162.4,277.6c0,1.5,0.1,2.8-1.4,2.8s-4.1-1.2-4.1-2.8c0-1.5,1.2-2.8,2.8-2.8S162.4,276.1,162.4,277.6z"/>
			<circle class="st5" cx="169.2" cy="279" r="2.8"/>
			<circle class="st5" cx="178.9" cy="279" r="2.8"/>
			<circle class="st5" cx="187.1" cy="277.6" r="2.8"/>
			<path class="st4" d="M172.3,257.9v-0.5v-21.3v-2.4c0,0,33.9-17.5,29.6,4.4c0,0-6.6,31.8-11,28.5s-9.9,6.6-9.9,6.6
				s-7.7-8.8-16.4,0c0,0-12-12-13.1-6.6c0,0-11-17.5-7.7-29.6c0,0-3.3-16.4,26.3-3.3v23.5C170.1,257.4,170.1,258.5,172.3,257.9z"/>
			<path class="st3" d="M150.4,173.8c0,0-12-8-19-19c0,0-1,9,4,16s-12-5-16-13c0,0-4,15,22,28c0,0-7,3-30-16c0,0,4,19,22,25
				c0,0-12,1-22-8c0,0,2,16,20,15c0,0-1,5-10,0c0,0,1,9,43,9c0,0,18-7,0-13c0,0-3-13-10-15C154.4,182.8,146.4,181.8,150.4,173.8z"/>
			<path class="st5" d="M203.2,256.7c0,0,6.7,13.3-6.7,21.1c0,0-14.4,0-3.3-15.5C193.2,262.3,198.8,265.6,203.2,256.7z"/>
			<path class="st5" d="M142.3,256.7c0,0-6.7,13.3,6.7,21.1c0,0,14.4,0,3.3-15.5C152.2,262.3,146.7,265.6,142.3,256.7z"/>
			<path class="st6" d="M216.4,266.8c0,0-6,32,16,0c0,0,15-22,47-21c0,0,4-6-21-8c0,0,16-11,39-12c0,0,4-3-20-7c0,0,4-8,37-11
				c0,0-12-10-9-16l9,6c0,0-16-49-13-50l10,11c0,0-3-34-19-56c0,0-16-1,3,25l-5-3c0,0,8,19,7,39l-7-11c0,0-1,31,7,35c0,0-23,5-26,12
				c0,0,16,1,18,3c0,0-31,5-53,37c0,0,13-2,12,3C248.4,242.8,223.4,242.8,216.4,266.8z"/>
			<path class="st6" d="M125.6,267.8c0,0,6,32-16,0c0,0-15-22-47-21c0,0-4-6,21-8c0,0-16-11-39-12c0,0-4-3,20-7c0,0-4-8-37-11
				c0,0,12-10,9-16l-9,6c0,0,16-49,13-50l-10,11c0,0,3-34,19-56c0,0,16-1-3,25l5-3c0,0-8,19-7,39l7-11c0,0,1,31-7,35c0,0,23,5,26,12
				c0,0-16,1-18,3c0,0,31,5,53,37c0,0-13-2-12,3C93.6,243.8,118.6,243.8,125.6,267.8z"/>
			<path class="st3" d="M246.9,54.3c0,0,22-9,23-13c0,0-3,8-2,11c0,0,17-10,16-21c0,0,4,3,2,7c0,0,16-9,13-22c0,0,14,14-7,31
				c0,0,9,0,10-3c0,0,3,10-15,15c0,0,4,2,9,0c0,0-1,6-16,6c0,0,6,5,3,9c0,0-14-15-18-13l1,3C265.9,64.3,260.9,59.3,246.9,54.3z"/>
			<path class="st3" d="M94.4,56.3c0,0-22-9-23-13c0,0,3,8,2,11c0,0-17-10-16-21c0,0-4,3-2,7c0,0-16-9-13-22c0,0-14,14,7,31
				c0,0-9,0-10-3c0,0-3,10,15,15c0,0-4,2-9,0c0,0,1,6,16,6c0,0-6,5-3,9c0,0,14-15,18-13l-1,3C75.4,66.3,80.4,61.3,94.4,56.3z"/>
			<g>
				<linearGradient id="SVGID_1_" gradientUnits="userSpaceOnUse" x1="127.3686" y1="137.7696" x2="127.3686" y2="113.7696">
					<stop  offset="0" style="stop-color:#FFFF40"/>
					<stop  offset="1" style="stop-color:#000000"/>
				</linearGradient>
				<circle class="st7" cx="127.4" cy="125.8" r="12"/>
				<circle class="st8" cx="127.4" cy="125.8" r="5"/>
				<circle class="st9" cx="130.4" cy="119.8" r="3.5"/>
			</g>
			<path class="st2" d="M103.4,73.8c0,0-22-2-28,21l12-7c0,0,4,12-4,33c0,0,4-3,9-19c0,0,12-1,19,5
				C111.4,106.8,98.4,91.8,103.4,73.8z"/>
			<path class="st2" d="M247.4,71.8c0,0,22-2,28,21l-12-7c0,0-4,12,4,33c0,0-4-3-9-19c0,0-12-1-19,5
				C239.4,104.8,252.4,89.8,247.4,71.8z"/>
			<g>
				
					<linearGradient id="SVGID_2_" gradientUnits="userSpaceOnUse" x1="86.3686" y1="137.7696" x2="86.3686" y2="113.7696" gradientTransform="matrix(-1 0 0 1 308.7372 0)">
					<stop  offset="0" style="stop-color:#FFFF40"/>
					<stop  offset="1" style="stop-color:#000000"/>
				</linearGradient>
				<circle class="st10" cx="222.4" cy="125.8" r="12"/>
				<circle class="st8" cx="222.4" cy="125.8" r="5"/>
				<circle class="st9" cx="219.4" cy="119.8" r="3.5"/>
			</g>
			<path class="st3" d="M263.4,105.8c0,0,18,30,22,46l-6-2c0,0,6,17,4,27l-7-5c0,0,3,17-7,25l-3-1c0,0-6,15-17,17c0,0-7,7-11,7l2-9
				c0,0,21-16,22-37l4,6c0,0,3-22-4-35l6,4c0,0-4-25-4-30l-4-17L263.4,105.8z"/>
			<path class="st3" d="M86.4,105.8c0,0-18,30-22,46l6-2c0,0-6,17-4,27l7-5c0,0-3,17,7,25l3-1c0,0,6,15,17,17c0,0,7,7,11,7l-2-9
				c0,0-21-16-22-37l-4,6c0,0-3-22,4-35l-6,4c0,0,4-25,4-30l4-17L86.4,105.8z"/>
			<path d="M327.4,184.6c1.8,0.7,3.3-1.8,1.5-2.6c-0.3-0.1-0.5-0.2-0.8-0.4c0.1-0.5,0.1-1-0.3-1.4c-0.6-0.7-1.3-1.2-2-1.8
				c0-0.3,0-0.6-0.2-0.9c0.1-0.3,0.1-0.7-0.1-1.1c-1.2-2.7-2.7-5.1-4.2-7.7c-1.5-2.5-2.3-5.1-2.8-8c-0.1-0.6-0.5-0.9-1-1
				c0-0.4,0-0.9-0.1-1.4c-1.1-3.7-2.3-7.4-2.9-11.3c-0.1-0.6-0.4-0.9-0.8-1c-0.1-0.4-0.2-0.7-0.3-1.1c0-2.2-0.1-4.3-0.5-6.5
				c0-0.1,0-0.2-0.1-0.3c0.4-0.4,0.6-1.1,0.3-1.7c-0.3-0.7-0.6-1.4-1-2.1c1.3,0.5,2.6,0.9,3.9,1.1c0.7,0.1,1.2-0.3,1.3-0.8l2.8,0.3
				c1.8,0.2,1.9-2.5,0.3-2.9c0.1-0.5,0-1.2-0.3-2c-0.8-2.6-1.9-5.2-3.3-7.6c0.2-0.4,0.2-0.8-0.1-1.3c-1.4-2.4-2.6-4.9-3.7-7.5
				c0.6-0.6,0.7-1.8-0.3-2.3c-0.4-0.3-0.9-0.5-1.3-0.8c0.1-0.3,0-0.7-0.2-1.1c-1.3-1.7-3.1-2.8-5-3.8c-0.6-0.5-1.3-0.8-2-0.9
				c-0.3-0.1-0.6-0.2-0.8-0.4c-3.1-1.4-6.1-2.3-9.5-2.4c-0.2-0.1-0.4-0.2-0.7-0.2c-1.5,0-1.8,1.8-1,2.6c0.2,0.3,0.5,0.5,1,0.6
				c0.1,0.1,0.3,0.2,0.4,0.3c0.6,0.2,1.1,0.4,1.6,0.7c-0.2,0.6-0.1,1.4,0.6,1.8c0.6,0.4,1.2,1,1.7,1.7c-0.3,0.4-0.3,0.9,0.1,1.4
				c2.8,3.7,3,8.3,5.1,12.3c0.2,0.3,0.4,0.5,0.7,0.6c0,0.2,0,0.4,0.1,0.6c0.6,1.2,1.2,2.6,2,4c-0.3,0.4-0.4,1,0,1.5
				c0.1,0.2,0.2,0.3,0.4,0.5c-0.2,0.3-0.3,0.7-0.1,1.2c0.9,2.3,1.8,4.6,2.7,6.8c-0.3,0.4-0.4,1-0.1,1.5c0.4,0.9,0.8,1.8,1.1,2.7
				c-0.2,0.4-0.4,0.8-0.3,1.3c0.2,0.9,0.4,1.8,0.7,2.7c0.1,0.2,0.2,0.4,0.4,0.6c0,0,0,0.1,0,0.1c0,0.1,0,0.2,0,0.3
				c-0.2,0.3-0.3,0.7-0.2,1.2c0.6,2.4,0.9,4.9,1.2,7.3c0.2,1.4,0.3,2.9,0.7,4.3c-0.2-0.2-0.4-0.3-0.7-0.5c0.2-0.5,0.1-1.2-0.3-1.6
				c-0.9-0.7-1.9-1.4-2.8-2.2c-0.1-0.1-0.3-0.2-0.4-0.3c-0.1-0.2-0.2-0.3-0.4-0.4c-0.4-0.4-0.8-0.9-1-1.5c-0.2-0.9-1-1.2-1.7-1
				c-0.4-0.8-0.7-1.5-0.9-2.3c-0.4-1.9-3.2-1.1-2.9,0.8c0.2,1.2,0.9,2.4,1.5,3.6c0,0.2,0.1,0.4,0.1,0.6c-0.4,0.3-0.7,0.8-0.5,1.5
				c0.4,2.2,1.3,4.1,2,6.2c0.6,1.7,1,3.4,1.8,5c-0.3,0.4-0.5,1-0.2,1.6c1,2.4,2.1,4.8,3.1,7.2c-0.1,0.3-0.1,0.6,0,0.9
				c1.2,4.1,2.6,8.2,4.2,12.2c-0.3,0.3-0.4,0.8-0.2,1.3c0.9,2.3,1.8,4.5,2.8,6.8c-2-1.1-4-2.2-5.8-3.6c-0.4-0.3-0.8-0.4-1.2-0.3
				c-0.2-0.3-0.4-0.7-0.6-1c-1-1.7-3.6-0.2-2.6,1.5c0.2,0.3,0.4,0.7,0.6,1c0,0.2-0.1,0.4,0,0.7c0.6,3.5,3.5,6.3,5.9,8.7
				c0.4,0.4,0.9,0.5,1.4,0.4c0.7,0.8,1.4,1.6,2,2.4c-0.2,0-0.5-0.1-0.8-0.1c-0.7,0-1.3,0.1-1.8,0.4c-0.1,0-0.1,0-0.2,0
				c-0.2,0-0.4,0-0.5,0c-0.3-0.3-0.7-0.5-1.1-0.5c-1.1-0.1-2.3,0-3.4,0.3c-0.6,0.1-1.1,0.8-1.1,1.4c-0.5,0-0.9,0.1-1.4,0.1
				c-1.1,0.1-2.1,0.4-3.2,0.7c-0.5-0.2-1.1-0.3-1.8-0.3c-1.2,0-2.1,0.4-2.8,1c-0.3-0.1-0.7-0.1-1.1-0.1c-1.3,0-2.3,0.5-3,1.2
				c-0.3,0.1-0.5,0.2-0.7,0.4c-2-0.2-4.1-0.1-5.9,0.1c-2.2,0.3-4,1.5-4.4,3.7c-0.6,0-1.2,0.1-1.8,0.1c-0.8,0.1-1.5,0.6-1.5,1.5
				c0,0.8,0.7,1.6,1.5,1.5c0.8-0.1,1.6-0.1,2.3-0.2c0.8,1.4,2.3,2.5,3.9,2.3c2.4-0.3,4.7-0.4,7,0.2c2.2,0.5,3.4,0.8,3.7,3.1
				c0,0.2,0.1,0.3,0.1,0.5c-0.1,0-0.2,0.1-0.3,0.1c-1.6,0.6-3.1,1.2-4.7,1.7c-0.2,0.1-0.3,0.1-0.4,0.2c-0.4-0.1-0.9-0.2-1.4-0.2
				c-1.1,0-2,0.3-2.7,0.9c-0.2,0-0.3,0-0.5,0c-0.7,0-1.2,0.1-1.8,0.3c0,0,0,0-0.1,0c-0.3,0-0.6,0-0.9,0.1c-0.3-0.1-0.6-0.1-0.9-0.1
				c-1.4,0-2.5,0.5-3.2,1.4c-0.4,0-0.8,0.1-1.1,0.2c-0.2,0-0.5,0.1-0.7,0.1c-0.6,0.1-1.1,0.3-1.5,0.6c-0.1,0-0.2,0.1-0.3,0.1
				c0,0,0,0,0,0c-1,0-1.8,0.3-2.5,0.7c-0.7,0.1-1.3,0.3-1.8,0.7c-0.4-0.2-0.9-0.2-1.4,0.1c-0.3,0.2-0.5,0.3-0.8,0.5
				c-1.3,0.1-2.5,0.4-3.8,1.1c-0.4,0.2-0.6,0.6-0.7,1c-0.9,0.2-1.7,0.4-2.6,0.5c-0.5,0.1-1,0.1-1.5,0.3c-1.8,0.6-1.1,3.3,0.8,2.9
				c0.4-0.1,0.7-0.1,1.1-0.2c2.6-0.2,5.9,1.1,8.2,1.6c0.3,0.1,0.6,0,0.8,0c0.2,0.1,0.3,0.2,0.5,0.3c0.7,0.8,1.8,1.3,3.2,1.3
				c0.2,0,0.3,0,0.5,0c0.5,0.5,1,0.9,1.8,1.1c0.2,1.3,0.9,2.5,2,3.2c0,0,0,0,0,0c-3.2,0.5-6.4,1-9.6,1.6c-0.6-0.2-1.2-0.3-1.9-0.3
				c-1.3,0-2.4,0.3-3.2,0.9c-0.5-0.2-1.1-0.2-1.8-0.2c-1.7,0-3.1,0.6-4,1.6c-0.6,0.1-1.2,0.3-1.7,0.5c-0.3,0-0.6-0.1-0.9-0.1
				c-1.9,0-3.4,0.7-4.3,1.9c-1.4,0.1-2.6,0.6-3.4,1.4c-1.9,0.3-3.2,1.4-4,2.8c-0.7,0.2-1.3,0.5-1.8,0.8c-1.8,0.5-2.9,1.8-3.5,3.3
				c-0.3,0.3-0.7,0.6-0.9,0.9c-3.1,0.3-4.9,2.6-5.2,5.2c-4.2,4-7.9,8.4-10.8,13.3c-0.2,0-0.4,0.1-0.5,0.2c-1,0.7-2,1.4-3.1,2.1
				c-0.2-0.1-0.4-0.2-0.7-0.2c0,0-0.1,0-0.1,0c-0.2-0.1-0.4-0.2-0.7-0.2c-0.1,0-0.1,0-0.2,0c-0.2-0.1-0.4-0.2-0.7-0.2
				c-1.9,0-1.9,3,0,3c0.1,0,0.1,0,0.2,0c0.2,0.1,0.4,0.2,0.7,0.2c0,0,0.1,0,0.1,0c0.2,0.1,0.4,0.2,0.7,0.2c0,0,0.1,0,0.1,0
				c0,0,0.1,0,0.1,0.1c-0.2,0.8,0.3,1.9,1.4,1.9c0.4,0,0.6-0.1,0.8-0.3c0,0.6,0.2,1.3,0.7,1.9c1.8,2.2,3.3,4.7,3.5,7.3
				c0,0.1-0.1,0.1-0.1,0.2c-2.4,4.6-6.9,10-3.4,15c-0.1,0-0.2,0-0.3,0c-0.1-0.5-0.5-1-1-1.1c-0.6-0.1-1.2-0.2-1.8-0.4
				c-0.6-0.2-0.7-0.1-0.9-0.6c-0.3-0.5-0.7-0.7-1.1-0.7c0.1-0.5,0.2-0.9,0.3-1.4c0.3-1.9-2.6-2.7-2.9-0.8c-0.4,2.3-0.9,4.5-1.7,6.7
				c-0.4,0-0.8,0.3-1,0.7c-1.2,1.9-2.7,3.6-4.5,5c-0.3,0.2-0.5,0.5-0.6,0.8c-0.4,0-0.9,0-1.4-0.1c0,0-0.1,0-0.1,0c0-0.1,0-0.1,0-0.2
				c0.1-1.5-0.8-2.4-1.9-2.7c-0.2-0.5-0.6-1-1.4-1c-0.9,0-1.4,0.7-1.4,1.4c-0.7,0.5-1.3,1.2-1.3,2.4c0,0.1,0,0.3,0,0.4
				c0,0,0,0-0.1,0c-1.1,0.7-1.7,2-1.4,3.3c-0.8,0-1.5-0.1-2.3-0.1c-1.2-0.5-2.8,0.3-3.4,1.4c-0.3,0.6-0.7,1.2-1.1,1.8
				c-0.3-0.4-0.6-0.8-0.9-1.2c-0.3-0.4-0.7-0.6-1.1-0.8c0.2-0.9-0.2-1.9-1.4-1.9c-1.4,0-1.8,1.5-1.2,2.4c-0.4,0.2-0.7,0.6-1,1
				c-1.6,2.5-3.5,4.4-5.9,6c-2.5,0.4-5,0.5-7.5,0.4c-2.6-0.2-5.1-0.6-7.6-1.4c-0.2,0-0.4-0.1-0.8-0.3c-1.5-1.8-3.6-2.8-5.1-4.7
				c-0.2-1.3-1.1-2.5-2.9-2.5c-1.5,0-2.4,0.9-2.7,2c-0.1,0.2-0.2,0.4-0.3,0.5c-0.2,0.1-0.3,0.2-0.5,0.4c-0.1-0.1-0.2-0.1-0.3-0.2
				c-0.8-0.5-1.6-0.9-2.4-1.3c-0.4-0.2-0.7-0.4-1-0.5c-0.1-0.6-0.3-1.2-0.8-1.6c-0.3-0.2-0.6-0.5-0.9-0.8c-0.2-0.2-0.3-0.3-0.4-0.5
				c0,0-0.2-0.2-0.3-0.3c-0.1-0.1-0.1-0.2-0.1-0.2c-0.1-0.2-0.2-0.4-0.3-0.5c-0.1-0.2-0.2-0.3-0.3-0.5c0.1-1.5-0.9-3.1-2.9-3.1
				c-1.8,0-2.7,1.2-2.9,2.6c-1.7,0-3.2-0.4-4.4-1.8c-0.2-0.2-0.3-0.3-0.5-0.5c0.2-0.6,0.2-1.3,0-1.7c-0.2-0.4-0.3-0.8-0.5-1.2
				c-0.3-0.7-0.7-1.4-1.4-1.8c-0.3-0.2-0.6-0.3-0.9-0.3c0.5-1.4-0.3-2.7-1.4-3.3c0.1-0.3,0.1-0.5,0-0.8c-0.1-0.3-0.2-0.6-0.2-1
				c-0.4-1.6-3.1-1.3-2.9,0.4c0,0.1,0,0.2,0,0.2c0,0,0,0.1,0,0.1c-0.1,0.3-0.1,0.6,0.1,0.9c-0.4,0.2-0.7,0.6-1,1
				c-0.5,0.8-1.1,2.1-1.6,3c-0.3,0-0.6,0-0.8,0c-0.3,0-0.6,0.2-0.9,0.4c-0.2-0.5-0.4-0.9-0.6-1.4c-0.1-0.2-0.2-0.4-0.3-0.6
				c0.6-0.8,0.3-2.3-1-2.4c-0.3-1.4-0.6-2.7-1-4c-0.1-0.2-0.1-0.3-0.2-0.4c0-0.2,0-0.3,0-0.5c-0.3-1.1-0.6-2.2-0.7-3.3
				c-0.1-0.4-0.3-0.7-0.6-0.9c0-0.8,0-1.6,0.1-2.4c0-0.4-0.1-0.7-0.4-1c0.4-1.4,0.9-2.8,1.5-4.2c0.2-0.5,0.2-0.9,0-1.3
				c0.9-1.2,1.6-2.1,1.7-2.3c0.4-0.5,0.4-1.1,0.3-1.6c0.1,0,0.2-0.1,0.2-0.1c0.2-0.1,0.4-0.2,0.6-0.3c0.4,0,0.8-0.1,1.2-0.2
				c0.1,0,0.1,0,0.2-0.1c0,0,0.1,0,0.1,0c0.8,0,1.3-0.5,1.4-1.1c0,0,0,0,0,0c0,0,0,0,0,0c0.1,0,0.2,0.1,0.2,0.1c0,0,0,0,0,0
				c0.1,0,0.2,0.1,0.2,0.1c0,0,0.1,0,0.1,0c0.1,0,0.1,0,0.2,0c0.1,0,0.1,0,0.1,0c0.1,0,0.1,0,0.2,0c0.3-0.1,0.5-0.2,0.6-0.3
				c0,0,0.1-0.1,0.1-0.1c0.1-0.1,0.3-0.3,0.3-0.4c0.2,0.3,0.5,0.7,0.7,0.9c2.7,3,6,5.6,9.1,8.3c0.5,0.4,1.1,0.5,1.5,0.3
				c0.2,0.1,0.5,0.2,0.7,0.2c0.1,0.1,0.1,0.2,0.2,0.2c0.4,0.4,0.9,0.5,1.4,0.4c0.1,0.1,0.3,0.1,0.4,0.2c3.4,1.1,8.3,0.1,11.9,0.1
				c5.6-0.1,10.4-0.4,15.5,2.6c0.5,0.3,1,0.2,1.4,0c0.2,0.3,0.5,0.4,0.7,0.5c0.1,0.2,0.1,0.4,0.2,0.6c0.6,1.8,3.5,1.1,2.9-0.8
				c0-0.1-0.1-0.2-0.1-0.3c0,0,0.1-0.1,0.1-0.1c0.1-0.1,0.3-0.3,0.4-0.4c0.4,0.1,0.8,0.1,1.2-0.1c3-1.8,6-3.3,9.6-3.6
				c2.7-0.2,5.4,0.1,8.2-0.3c0.1,0,0.3,0,0.4-0.1c0.1,0.7,0.6,1.4,1.5,1.4c1.2-0.1,2.4-0.3,3.5-0.5c3.4-0.5,7-1.1,9.8-2.7
				c1.4-0.8,2.5-1.9,3.4-3.2c0.7-0.9,1.9-4.6,3.1-4.8c1.6-0.3,1.3-2.3,0.1-2.8c0.1-0.1,0.2-0.2,0.3-0.3c1-1,0.2-2.3-0.8-2.5
				c0-0.1,0-0.2,0-0.3c1-0.7,0.7-2.7-0.9-2.7c-1,0-1.5,0.8-1.4,1.6c-0.4,0.3-0.6,0.7-0.6,1.2c-0.5,0.3-0.7,0.9-0.6,1.5
				c-0.6,0.3-0.9,0.9-0.9,1.5c-0.6,0.3-0.8,1-0.7,1.7c-0.2,0.1-0.5,0.3-0.7,0.6c-1,1.5-2.3,2.6-3.9,3.4c-0.5,0.3-0.8,0.7-0.8,1.1
				c-2.6,0.9-5.2,1.8-7.9,2.3c-3.7,0.3-7.4,0.2-11.3,0.5c-0.3-0.5-0.9-0.8-1.6-0.7c-3.5,0.5-6.9,1.2-10.2,2.3
				c-0.2,0.1-0.3,0.1-0.4,0.2c-0.5-0.5-1.3-0.5-1.9-0.2c-0.2-0.2-0.4-0.3-0.6-0.4c-0.1,0-0.3-0.1-0.4-0.1c-0.4-0.2-0.9,0-1.3,0.3
				c-6.3-2.3-13.3-1.5-19.8-1.4c-0.7,0-1.5-0.1-2.3-0.1c-0.1-0.2-0.3-0.4-0.5-0.5c-0.7-0.4-1.5-0.6-2.3-0.8c-0.1-0.4-0.4-0.8-1-0.9
				c-0.1,0-0.1,0-0.2,0c0-0.5-0.3-1-0.7-1.3c-1.5-1.2-3.3-1.8-4.9-2.9c-1.7-1.2-2-3-3.2-4.5c-1.5-1.9-4.9-1.5-6.6-0.1
				c-0.7,0.6-1,1.5-0.9,2.3c-0.6,0.1-1,0.5-1.2,1.1c0,0.1-0.1,0.3-0.1,0.4c0,0,0,0,0,0c-0.2,0.2-0.2,0.4-0.3,0.6
				c-0.2-0.1-0.5-0.2-0.8-0.2c-0.3,0-0.5,0.1-0.7,0.1c-0.1,0-0.3,0-0.4,0c-0.5,0.1-1,0.1-1.6,0.2c-0.1,0-0.2,0-0.3,0
				c-0.2-0.3-0.6-0.6-1-0.6c0-0.1,0-0.1,0-0.2c-0.5-1.5-1.5-2.1-2.6-2.3c0-0.6-0.2-1.2-0.6-1.6c-0.4-0.4-0.9-0.6-1.4-0.7
				c0.1-1-0.4-1.9-1.4-2.4c-0.4-0.2-0.9-0.3-1.4-0.4c0.1-0.3,0.1-0.7,0.1-1c-0.3-1.7-1.3-2.5-2.6-2.9c-0.1-0.2-0.3-0.3-0.4-0.4
				c0.2-0.6,0.1-1.3-0.7-1.6c-0.1,0-0.1-0.1-0.2-0.1c0.2-0.6,0.1-1.3-0.6-1.7c-0.9-0.5-1.7-1.1-2.5-1.6c-0.1-0.4-0.3-0.8-0.7-1
				c-0.4-0.2-0.8-0.5-1.2-0.7c0-0.1-0.1-0.1-0.2-0.2c-3.7-3.8-7.8-7-12.4-9.4c-4.9-2.5-10.1-3.1-15.1-5.2c-0.2-0.1-0.4-0.1-0.6-0.1
				c-0.2-0.1-0.3-0.1-0.5-0.2c-0.1-0.2-0.3-0.4-0.6-0.6c-2.4-1.2-3.8-1-4.7-0.1c-0.1-0.1-0.3-0.2-0.5-0.2c-1.7-0.4-3.2-1-4.4,0.2
				c-0.7-0.5-1.6-0.5-2.4-0.2c0.1-0.6-0.2-1.1-0.6-1.3c0.2-0.4,0.4-0.8,0.6-1.2c0.1-0.3,0.2-0.5,0.2-0.8c2-0.7,4-1.6,6-2.4
				c2.7-0.9,5.5-1.2,8.1-2.1c0.2-0.1,0.3-0.2,0.5-0.3c0.8,0.2,1.7,0.3,2.5,0.4c1.9,0.2,1.9-2.8,0-3c-1.8-0.2-3.6-0.7-5.3-1.1
				c0-0.6-0.3-1.1-1-1.4c-9.3-3.5-19.4-6.1-29.4-6.2c-0.2-0.7-0.4-1.4-0.6-2.1c1.1-0.3,1.9-0.8,2.7-1.4c0.5,0,1-0.1,1.4-0.4
				c1.6-0.8,3.2-1.5,4.8-2.1c0.1,0,0.2-0.1,0.3-0.1c0.9-0.1,1.8-0.1,2.7-0.1c0.2,0,0.4,0,0.6,0c1.2,0,2.3,0,3.5,0.1
				c1.2,0.1,2-0.4,2.4-1.1c0.2,0.1,0.4,0.2,0.7,0.2c1.4,0,1.5-2.3,0-2.3c-0.1,0-0.2,0-0.2,0c-0.1-1.4-1.1-2.8-2.9-2.9
				c-1.1-0.1-2.2-0.1-3.3-0.1c-1.2-0.4-2.4-0.6-3.7-1c-1.8-0.6-3.5-1.4-5.3-2.1c-0.5-0.2-1.1-0.2-1.6,0c-1.1-0.9-2.6-1.4-4.4-1.4
				c-0.5,0-1,0-1.4,0.1c-0.7-0.3-1.4-0.4-2.2-0.5c-0.9-0.4-2-0.7-3.3-0.7c-1.2,0-2.3,0.2-3.2,0.6c-0.3-0.2-0.7-0.3-1-0.4
				c-1-0.3-2-0.6-2.9-0.9c0.1-0.3,0.1-0.6-0.1-0.9c1.4-0.8,2.7-1.5,4-2.4c0.8-0.5,0.8-1.4,0.5-2.1c1.4-0.9,2.7-1.9,4-2.9
				c0.7-0.5,0.6-1.2,0.3-1.7c0,0,0.1,0,0.1-0.1c1-0.6,0.9-1.6,0.3-2.3c1.5-1.1,0-3.6-1.6-2.5c-2.6,1.7-5.1,3.3-7.7,5
				c1-3.1,1.9-6.1,2.3-9.2c0-0.1,0-0.2,0-0.2c0.3-0.7,0.5-1.3,0.7-2c0,0,0-0.1,0-0.1c0.8-1.8,1.6-3.7,2.4-5.6
				c0.2-0.4,0.1-0.8-0.1-1.1c0.6-1.6,1.3-3.2,2-4.8c0.3-0.5,0.2-1,0-1.4c0.8-1.7,1.6-3.5,2.2-5.3c0.2-0.6,0-1.1-0.4-1.5
				c0.6-1.7,1.2-3.5,1.8-5.2c0.2-0.5,0.1-0.9-0.2-1.2c0.5-1.2,0.9-2.4,1.4-3.6c0.2-0.6,0.1-1.1-0.3-1.4c0.5-1.2,1-2.4,1.4-3.6
				c0.1-0.4,0.1-0.7,0-1c-0.3-1.3-2.5-1.6-2.9-0.1c-0.5,1.8-2.1,3.5-3.2,5c-0.9,1.3-2.1,2.5-3.3,3.4c-0.5,0-1,0.2-1.4,0.6
				c0.8-4.2,1.6-8.4,2.4-12.6c0.1-0.6-0.1-1-0.4-1.3c0.3-1.2,0.6-2.4,0.9-3.6c0.1-0.3,0.1-0.6,0-0.9c0.8-3.2,1.8-6.2,3.1-9.2
				c0.3-0.6,0.1-1.3-0.3-1.8c0-0.1,0.1-0.2,0.1-0.3c0.6-0.3,0.9-1.1,0.7-1.8c0.3-0.5,0.4-1.1,0.5-1.7c0.6-0.5,1.1-1.2,1.3-2.1
				c0.6-2.5,1.9-4.2,2.9-6.9c0.2-0.7,0.3-1.4,0.1-2c0.8-0.6,1.5-1.2,2.3-1.8c1.3-1.2,1.6-3.2,1-4.8c0.2-0.1,0.4-0.3,0.6-0.5
				c0.2-0.3,0.5-0.9,0.7-1.1c0,0,0,0,0.1,0c0.4-0.2,0.6-0.3,0.9-0.6c0.5-0.4,0.6-1,0.3-1.5c0.2,0,0.5-0.1,0.7-0.1
				c0.2,0,0.4-0.1,0.5-0.2c0.3,0,0.6-0.1,0.8-0.3c1.2-0.6,1-2.8-0.7-2.8c-0.4,0-0.7,0.1-0.9,0.3c-0.1,0-0.1,0.1-0.2,0.1
				c-0.1,0-0.3,0-0.4,0c-2.8,0.6-5.8,1-8.4,2.3c-3,1.4-5.7,3.4-8.5,5.1c-0.9,0.5-0.9,1.5-0.4,2.2c-1.7,1.8-2.2,4.3-2.2,6.8
				c0,0.2,0,0.3,0,0.5c-0.4,0.4-0.8,0.9-1.1,1.5c-0.8,1.6-0.9,3.5-1.2,5.3c-0.1,0.8-0.3,1.6-0.4,2.4c0,0-0.1,0.2-0.1,0.5
				c-0.2,0-0.4,0-0.5,0.1c-0.1,0-0.1,0.1-0.2,0.1c-0.8,0.3-1.3,1-1,1.8c0.1,0.3,0.3,0.6,0.7,0.9c0,0.2-0.1,0.4-0.1,0.6
				c-0.2,0.1-0.4,0.3-0.5,0.5c-0.2,0.4-0.4,0.9-0.6,1.4c-0.3,0.4-0.5,0.9-0.4,1.4c0.2,0.7,1.1,1.3,1.8,1c0.5-0.2,0.9-0.6,1.1-1
				c1.1,1.1,2.7,1.7,4.3,1.2c0,0.5,0,1.1,0.1,1.6c0,0.7,0.5,1.1,1,1.4c-0.1,0.4-0.2,0.9-0.4,1.3c-0.1,0.3,0,0.6,0,0.8
				c-1.4,5-2.6,10.1-3.5,15.2c-0.5,0.1-0.9,0.4-1.1,0.9c-2,4.8-3.3,9.9-5.3,14.7c-0.3,0.1-0.5,0.3-0.7,0.6c-0.8,1.4-1.5,2.8-2.2,4.3
				c-0.5,1.1-0.8,3-1.9,3.6c-1,0.5-0.9,1.6-0.3,2.3c-0.3,0.3-0.6,0.5-1,0.6c-1.8,0.6-1.1,3.5,0.8,2.9c1.1-0.3,2-1.1,2.8-2
				c0.4,0.7,1.2,1.2,2.1,0.7c1.4-0.7,2.6-1.8,3.6-3.1c0.1,0.2,0.3,0.3,0.5,0.3c-0.4,1.5-0.8,3.1-0.8,4.7c-1.5,0.2-1.6,2.2-0.5,2.8
				c-1.3,4.6-2.5,9.2-3.6,13.9c-0.6,2.5-1,5.2-1.7,7.7c-0.1,0.3-0.2,0.5-0.2,0.8c0,0,0,0.1,0,0.1c-0.7,2.3-1.8,4.3-2.4,6.7
				c-0.4,1.8,2.2,2.6,2.8,1c0.5,0.3,1.1,0.4,1.6,0.2c0.4,0.3,0.9,0.5,1.4,0.4c0.6,0.3,1.2,0.6,1.8,0.8c1.4,0.4,2.9,0.9,4.3,1.3
				c1.5,0.5,3.4,0.3,5-0.4c0.7,0.3,1.6,0.6,2.5,0.6c0.7,0.3,1.5,0.6,2.4,0.7c0.1,0.1,0.3,0.1,0.4,0.2c0,0.3,0,0.6,0.1,0.9
				c0.2,0.5,0.4,0.9,0.6,1.2c-0.8,0.2-1.2,1-1.1,1.7c-0.5,0.4-1.1,0.8-1.8,1.1c-2.7,1.2-5.2,1.1-7.5,3.2c-0.2,0.2-0.3,0.4-0.4,0.6
				c-1.4,0.2-2.9,0.3-4.3,0.5c-1.9,0.3-1.1,3.1,0.8,2.9c3.8-0.5,7.6-0.9,11.4-1c0.1,0.4,0.4,0.8,1,1c7.3,1.8,14.3,0.5,21.4,3.6
				c0.1,0.4,0.4,0.7,0.9,0.8c-0.1,0.2-0.2,0.5-0.1,0.7c-0.3,0.1-0.7,0.3-0.8,0.7c-0.7,1.4-1.4,2.8-2.1,4.2c-0.1,0.2-0.1,0.3-0.2,0.5
				c-1.1,1-2.1,1.9-2.3,2.1c-2.2,2.2-4.3,4.7-6.7,6.7c-1.5,1.2,0.7,3.4,2.1,2.1c0.2-0.2,0.4-0.3,0.5-0.5c0.5,0.2,1.1,0.3,1.7-0.2
				c0.2-0.2,0.4-0.3,0.6-0.5c0.5,0.7,1.5,1,2.2,0.2c0,0,0.1-0.1,0.1-0.1c0.3,0.2,0.6,0.3,1.1,0.2c1.1-0.2,2.3-0.5,3.4-1
				c0.1,0.7,0.8,1.4,1.8,1.3c1.5-0.2,2.5-0.4,3.3-0.8c0,0.8,0.6,1.7,1.5,1.6c1.8-0.2,2.9-0.4,3.8-1c-0.3,1.5,1.6,2.4,2.5,1.4
				c0.5,0.7,1.7,1.1,2.4,0.3c0.1,0.1,0.2,0.2,0.4,0.3c4.3,2.4,9,3.4,13.6,4.9c4.7,1.5,12,4.1,14.7,8.8c0.2,0.3,0.4,0.5,0.6,0.6
				c-0.1,0.2-0.1,0.4-0.1,0.7c0,0.5,0.3,1,0.7,1.3c0.5,0.3,1.1,0.5,1.6,0.5c0,0.3,0,0.7,0.2,1.1c0.4,1.1,1.3,2,2.5,1.9
				c0.1,0.8,0.7,1.4,1.2,2.2c0.2,0.4,0.6,0.6,0.9,0.7c0,0.1-0.1,0.2-0.1,0.3c0,0.9,0.3,1.5,0.8,2c-0.1,0.2-0.1,0.4-0.1,0.6
				c-0.2,1.2,0.6,2,1.8,1.8c0.1,0,0.1,0,0.2-0.1c0,0.6,0.3,1.3,1.1,1.8c-0.6,1.3-0.9,2.7-0.9,4.3c0,0.5,0.2,0.9,0.6,1.2
				c-1,1.9-1.6,3.8-1.5,5.7c0,0.5,0.3,1.1,0.7,1.3c0.2,0.1,0.4,0.2,0.6,0.3c0.2,0.1,0.3,0.1,0.5,0.2c-0.3,1.5-0.1,3,0.1,5
				c0,0.2,0,0.4,0.1,0.6c0,0.1,0,0.2,0,0.3c0,0,0,0,0,0c0,0.1,0,0.3,0,0.4c0.1,0.8,0.9,1.1,1.6,1c-0.2,7.2,3.6,13.8,9.9,17.4
				c0.4,0.2,0.8,0.3,1.2,0.1c1,1.2,2.2,2.2,3.5,2.8c0,0,0,0,0.1,0c0,0,0,0,0,0c0.1,0.1,0.2,0.1,0.4,0.2c1.1,0.4,1.9-0.6,1.9-1.6
				c0.4,0.5,0.8,1,1.3,1.5c2.2,2.4,5.5,5.1,9.1,6.9c0.2,1.3,1.1,2.5,2.9,2.5c0.1,0,0.2,0,0.3,0c0.4,0.9,1.3,1.5,2.5,1.5
				c1.6,0,2.5-1,2.8-2.2c14.5,8.5,32.1,10.9,45.4-0.6c0.5,1.9,3.1,3.3,5.2,1.7c1.9-1.6,3.6-3.4,5.2-5.3c1.5-1.7,3.5-2.9,5-4.6
				c0.7-0.8,0.9-1.6,0.7-2.5c0.5-0.3,1-0.6,1.5-0.9c0,0.8,0.3,1.6,0.9,2.1c1.2,1.2,3,1,4.2,0c1.1-0.9,1.8-2,2.5-3.1
				c0.8,0.1,1.7-0.1,2.5-0.7c2.5-2.2,3.2-5.4,4.8-8.2c1.8-3.1,3.3-5.7,4.2-9.2c1.5-6.4,1.9-12.8-0.7-18.9c0.5-0.4,1-1,1.4-1.7
				c5.1-9.3,13.6-16.6,22.7-21.8c9.6-5.5,20.9-7,31.8-8.4c1.6-0.2,2.9-0.9,3.8-1.9c0.2,0.1,0.4,0.2,0.7,0.2c2,0,3.9,0,5.9,0
				c0.5,0,1-0.3,1.3-0.7c1-1.7-0.7-2.7-2.1-3.4c-1.3-0.6-2.7-1.1-3.9-1.8c-0.3-2.3-1.8-4.3-4.5-4.4c-0.3-0.8-0.9-1.5-1.7-1.9
				c0.3-1.5,0-3.2-1.1-4.3c0.7,0,1.3-0.1,2-0.2c2.6-0.5,4.9-1.8,7.5-2.4c5-1,10.2-0.7,15.2-0.4c2,0.1,3.3-0.9,3.9-2.3
				c0.7,0.2,1.3,0.5,2,0.7c1.9,0.6,2.6-2.3,0.8-2.9c-0.9-0.3-1.7-0.6-2.5-0.9c-0.4-1.8-1.7-3.3-3.9-3.6c-0.5-0.9-1.3-1.8-1.4-2.9
				c0-0.1,0-0.2-0.1-0.4c3.9-0.9,7.7-1.7,11.6-2.4c0.2,0,0.4-0.1,0.6-0.2c0.3,0.1,0.6,0.1,0.9,0.1c0.9-0.1,1.8-0.3,2.6-0.6
				c1.2-0.4,1.4-1.6,0.7-2.5c-0.2-0.3-0.5-0.4-0.8-0.5c0,0,0,0,0,0c-0.1-0.1-0.2-0.4-0.2-0.5c-0.1-0.2-0.2-0.5-0.4-0.6
				c0-0.3-0.1-0.5-0.1-0.8c-0.1-0.5-0.4-0.9-0.7-1.3c1.3,0.4,2.6,0.5,4,0.1c1.1-0.3,1.5-1.7,0.7-2.5c-0.6-0.6-1.1-1.2-1.6-1.9
				c0,0,0-0.1,0-0.1c0,0,0-0.1,0-0.1c0.1-0.1,0.2-0.1,0.3-0.2c0.5-0.5,0.6-1.6,0-2.1c-0.4-0.3-0.8-0.5-1.3-0.5
				c-0.5-2.3-1.2-4.6-1.9-6.9c0.4-0.4,0.7-1.1,0.3-1.8c-0.9-1.7-1.8-3.4-2.6-5.1c0,0,0-0.1-0.1-0.1c-0.7-4.4-1.9-8.6-3.6-12.6
				c0.7,0.4,1.5,0.7,2.3,1C322.6,181.9,324.9,183.5,327.4,184.6z"/>
			<g>
				<path class="st11" d="M176.9,66.3l0.1,10.5c0,0,2.1,5,5.3,4c0,0,18.1-2,9.6,10c0,0,5.3,0,2.1,18c0,0,10.7,4,0,5l-3.2-3v1
					c0,0,7.5,9,1.1,14c0,0-4.3,1-3.2-8c0,0,2.1-5-3.2-5c-5.3,0-10.7-10-10.7-10l-1-35.5L176.9,66.3z"/>
				<path class="st11" d="M172.9,67.3l-0.1,9.5c0,0-2.1,5-5.2,4c0,0-17.8-2-9.4,10c0,0-5.2,0-2.1,18c0,0-10.5,4,0,5l3.1-3v1
					c0,0-7.3,9-1,14c0,0,4.2,1,3.1-8c0,0-2.1-5,3.1-5c5.2,0,10.5-10,10.5-10l-1-35.5H172.9z"/>
			</g>
			<path class="st0" d="M190.4,108.8c0,0-15-6-12-24C178.4,84.8,193.4,82.8,190.4,108.8z"/>
			<path class="st0" d="M160.4,108.8c0,0,15-6,12-24C172.4,84.8,157.4,82.8,160.4,108.8z"/>
			<g>
				<circle class="st3" cx="237.9" cy="116.3" r="4"/>
				<path class="st3" d="M206.4,146.8c0,0-1-9,28-6c0,0,3,1,7-16s16-2,16-2s5,1,2-4c0,0-17-14-25,8c0,0-9,11,1,6c0,0,0,7-12,4
					s-18,6-18,6S202.4,147.8,206.4,146.8S206.4,146.8,206.4,146.8z"/>
				<path class="st3" d="M191.4,139.8c0,0,13-5,21-18c0,0,2-9,26-8c0,0,27-8,4-26c0,0-8-4-1,9c0,0-4-7-13-7c0,0,3-10-21-18
					c0,0-3,0,2,4c0,0,28,10-4,46C205.4,121.8,188.4,141.8,191.4,139.8"/>
			</g>
			<g>
				<circle class="st3" cx="111.5" cy="117.3" r="4"/>
				<path class="st3" d="M143,147.8c0,0,1-9-28-6c0,0-3,1-7-16s-16-2-16-2s-5,1-2-4c0,0,17-14,25,8c0,0,9,11-1,6c0,0,0,7,12,4
					s18,6,18,6S147,148.8,143,147.8S143,147.8,143,147.8z"/>
				<path class="st3" d="M158,140.8c0,0-13-5-21-18c0,0-2-9-26-8c0,0-27-8-4-26c0,0,8-4,1,9c0,0,4-7,13-7c0,0-3-10,21-18
					c0,0,3,0-2,4c0,0-28,10,4,46C144,122.8,161,142.8,158,140.8"/>
			</g>
			<g>
				<path class="st12" d="M174.9,142.3c0,0,3,1,3-9c0,0,1-2,3,0c0,0,7,19,20,9c0,0,13,3,0,10c0,0-12-6-21,1c0,0-2,2-5,2"/>
				<path class="st12" d="M174.6,142.3c0,0-3,1-3-9c0,0-1-2-3,0c0,0-7,19-20,9c0,0-13,3,0,10c0,0,12-6,21,1c0,0,2,2,5,2"/>
			</g>
			<path class="st2" d="M186.2,167.3c0,0-4.2-14.2,7.6-15c0,0-1.7,9.2-5.9,15C183.7,173.1,186.2,167.3,186.2,167.3z"/>
			<path class="st2" d="M163.1,167.3c0,0,4.2-14.2-7.6-15c0,0,1.7,9.2,5.9,15C165.7,173.1,163.1,167.3,163.1,167.3z"/>
		</g>
	</g>
	<g>
		<g>
			<path class="st11" d="M173.4,52.8v-7c0,0,34.5-26.5,72.5,14.5C245.9,60.3,200.4,35.8,173.4,52.8z"/>
		</g>
		<g>
			<path class="st11" d="M171.4,52.8v-7c0,0-34.5-26.5-72.5,14.5C98.9,60.3,144.4,35.8,171.4,52.8z"/>
		</g>
	</g>
	<g>
		<path class="st11" d="M174.3,66.5v-6.4c0,0,25.5-22.8,60.1,14.6C234.4,74.7,198.9,51,174.3,66.5z"/>
		<path class="st11" d="M172.9,66.5v-6.4c0,0-25.5-22.8-60.1,14.6C112.8,74.7,148.3,51,172.9,66.5z"/>
	</g>
</g>
</svg>
